<svg xmlns="http://www.w3.org/2000/svg" xmlns:xlink="http://www.w3.org/1999/xlink" viewBox="0,0,256,256" width="48px" height="48px" fill-rule="nonzero"><g fill="#339af0" fill-rule="nonzero" stroke="none" stroke-width="1" stroke-linecap="butt" stroke-linejoin="miter" stroke-miterlimit="10" stroke-dasharray="" stroke-dashoffset="0" font-family="none" font-weight="none" font-size="none" text-anchor="none" style="mix-blend-mode: normal"><path d="M65.28,256c-36.05315,0 -65.28,-29.22685 -65.28,-65.28v-125.44c0,-36.05315 29.22685,-65.28 65.28,-65.28h125.44c36.05315,0 65.28,29.22685 65.28,65.28v125.44c0,36.05315 -29.22685,65.28 -65.28,65.28z" id="shape"></path></g><g fill="none" fill-rule="nonzero" stroke="none" stroke-width="1" stroke-linecap="butt" stroke-linejoin="miter" stroke-miterlimit="10" stroke-dasharray="" stroke-dashoffset="0" font-family="none" font-weight="none" font-size="none" text-anchor="none" style="mix-blend-mode: normal"><g transform="scale(5.33333,5.33333)"><rect x="18" y="4" width="5" height="10" fill="#1a237e"></rect><rect x="18" y="25" width="5" height="10" fill="#1a237e"></rect><rect x="18" y="17" width="5" height="5" fill="#fbc02d"></rect><rect x="10" y="13" width="5" height="33" fill="#1a237e"></rect><rect x="26" y="33" width="5" height="10" fill="#1a237e"></rect><rect x="26" y="12" width="5" height="10" fill="#1a237e"></rect><rect x="26" y="25" width="5" height="5" fill="#ff4081"></rect><rect x="34" y="2" width="5" height="33" fill="#1a237e"></rect></g></g></svg>
